<?xml version="1.0" standalone="no"?>
<!DOCTYPE svg PUBLIC "-//W3C//DTD SVG 20010904//EN"
 "http://www.w3.org/TR/2001/REC-SVG-20010904/DTD/svg10.dtd">
<svg version="1.0" xmlns="http://www.w3.org/2000/svg"
 width="486.000000pt" height="486.000000pt" viewBox="0 0 486.000000 486.000000"
 preserveAspectRatio="xMidYMid meet">
<metadata>
Created by potrace 1.11, written by Peter Selinger 2001-2013
</metadata>
<g transform="translate(0.000000,486.000000) scale(0.100000,-0.100000)"
fill="#000000" stroke="none">
<path d="M2357 4824 c-1 -1 -49 -4 -107 -8 -58 -3 -114 -8 -125 -10 -11 -2
-40 -7 -65 -10 -1017 -154 -1837 -969 -2000 -1991 -21 -133 -25 -191 -25 -380
0 -222 11 -347 45 -492 6 -24 15 -64 21 -90 13 -58 76 -257 94 -298 174 -401
336 -632 636 -910 241 -223 622 -432 949 -522 81 -22 267 -60 328 -67 28 -3
74 -9 101 -12 72 -9 334 -9 426 -1 744 68 1396 460 1808 1087 66 101 188 337
222 430 76 207 134 449 154 645 9 95 7 415 -4 500 -58 455 -223 858 -494 1205
-136 174 -348 375 -533 503 -38 26 -70 47 -72 47 -3 0 -24 13 -48 29 -149 98
-413 210 -638 270 -97 26 -292 59 -395 67 -76 6 -273 12 -278 8z"/>
</g>
</svg>
